<svg width="167" height="208" viewBox="0 0 167 208" fill="none" xmlns="http://www.w3.org/2000/svg">
<path d="M32.096 200.336V203H21.932V185.648H25.16V200.336H32.096ZM41.2319 195.428C41.2319 195.044 41.1759 194.684 41.0639 194.348C40.9599 194.004 40.7999 193.704 40.5839 193.448C40.3679 193.192 40.0919 192.992 39.7559 192.848C39.4279 192.696 39.0439 192.62 38.6039 192.62C37.7479 192.62 37.0719 192.864 36.5759 193.352C36.0879 193.84 35.7759 194.532 35.6399 195.428H41.2319ZM35.5799 197.216C35.6279 197.848 35.7399 198.396 35.9159 198.86C36.0919 199.316 36.3239 199.696 36.6119 200C36.8999 200.296 37.2399 200.52 37.6319 200.672C38.0319 200.816 38.4719 200.888 38.9519 200.888C39.4319 200.888 39.8439 200.832 40.1879 200.72C40.5399 200.608 40.8439 200.484 41.0999 200.348C41.3639 200.212 41.5919 200.088 41.7839 199.976C41.9839 199.864 42.1759 199.808 42.3599 199.808C42.6079 199.808 42.7919 199.9 42.9119 200.084L43.7639 201.164C43.4359 201.548 43.0679 201.872 42.6599 202.136C42.2519 202.392 41.8239 202.6 41.3759 202.76C40.9359 202.912 40.4839 203.02 40.0199 203.084C39.5639 203.148 39.1199 203.18 38.6879 203.18C37.8319 203.18 37.0359 203.04 36.2999 202.76C35.5639 202.472 34.9239 202.052 34.3799 201.5C33.8359 200.94 33.4079 200.252 33.0959 199.436C32.7839 198.612 32.6279 197.66 32.6279 196.58C32.6279 195.74 32.7639 194.952 33.0359 194.216C33.3079 193.472 33.6959 192.828 34.1999 192.284C34.7119 191.732 35.3319 191.296 36.0599 190.976C36.7959 190.656 37.6239 190.496 38.5439 190.496C39.3199 190.496 40.0359 190.62 40.6919 190.868C41.3479 191.116 41.9119 191.48 42.3839 191.96C42.8559 192.432 43.2239 193.016 43.4879 193.712C43.7599 194.4 43.8959 195.188 43.8959 196.076C43.8959 196.524 43.8479 196.828 43.7519 196.988C43.6559 197.14 43.4719 197.216 43.1999 197.216H35.5799ZM50.6203 196.544C50.9883 196.544 51.3083 196.496 51.5803 196.4C51.8523 196.296 52.0763 196.156 52.2523 195.98C52.4363 195.804 52.5723 195.592 52.6603 195.344C52.7563 195.096 52.8043 194.824 52.8043 194.528C52.8043 193.92 52.6203 193.44 52.2523 193.088C51.8923 192.728 51.3483 192.548 50.6203 192.548C49.8923 192.548 49.3443 192.728 48.9763 193.088C48.6163 193.44 48.4363 193.92 48.4363 194.528C48.4363 194.816 48.4803 195.084 48.5683 195.332C48.6643 195.58 48.8003 195.796 48.9763 195.98C49.1603 196.156 49.3883 196.296 49.6603 196.4C49.9403 196.496 50.2603 196.544 50.6203 196.544ZM53.9683 203.552C53.9683 203.312 53.8963 203.116 53.7523 202.964C53.6083 202.812 53.4123 202.696 53.1643 202.616C52.9163 202.528 52.6243 202.464 52.2883 202.424C51.9603 202.384 51.6083 202.356 51.2323 202.34C50.8643 202.316 50.4803 202.296 50.0803 202.28C49.6883 202.264 49.3043 202.232 48.9283 202.184C48.6003 202.368 48.3323 202.584 48.1243 202.832C47.9243 203.08 47.8242 203.368 47.8242 203.696C47.8242 203.912 47.8763 204.112 47.9803 204.296C48.0923 204.488 48.2643 204.652 48.4963 204.788C48.7363 204.924 49.0443 205.028 49.4203 205.1C49.7963 205.18 50.2563 205.22 50.8003 205.22C51.3523 205.22 51.8283 205.176 52.2283 205.088C52.6283 205.008 52.9563 204.892 53.2123 204.74C53.4763 204.596 53.6683 204.42 53.7883 204.212C53.9083 204.012 53.9683 203.792 53.9683 203.552ZM56.9203 191.108V192.212C56.9203 192.564 56.7083 192.78 56.2843 192.86L55.1803 193.064C55.3483 193.488 55.4323 193.952 55.4323 194.456C55.4323 195.064 55.3083 195.616 55.0603 196.112C54.8203 196.6 54.4843 197.016 54.0523 197.36C53.6203 197.704 53.1083 197.972 52.5163 198.164C51.9323 198.348 51.3003 198.44 50.6203 198.44C50.3803 198.44 50.1483 198.428 49.9243 198.404C49.7003 198.38 49.4803 198.348 49.2643 198.308C48.8803 198.54 48.6883 198.8 48.6883 199.088C48.6883 199.336 48.8003 199.52 49.0243 199.64C49.2563 199.752 49.5603 199.832 49.9363 199.88C50.3123 199.928 50.7403 199.96 51.2203 199.976C51.7003 199.984 52.1923 200.008 52.6963 200.048C53.2003 200.088 53.6923 200.16 54.1723 200.264C54.6523 200.36 55.0803 200.516 55.4563 200.732C55.8323 200.948 56.1323 201.244 56.3563 201.62C56.5883 201.988 56.7043 202.464 56.7043 203.048C56.7043 203.592 56.5683 204.12 56.2963 204.632C56.0323 205.144 55.6443 205.6 55.1323 206C54.6283 206.4 54.0043 206.72 53.2603 206.96C52.5243 207.208 51.6843 207.332 50.7403 207.332C49.8123 207.332 49.0043 207.24 48.3163 207.056C47.6283 206.88 47.0563 206.64 46.6003 206.336C46.1443 206.04 45.8043 205.696 45.5803 205.304C45.3563 204.912 45.2443 204.504 45.2443 204.08C45.2443 203.504 45.4163 203.024 45.7603 202.64C46.1123 202.248 46.5923 201.936 47.2003 201.704C46.8723 201.536 46.6123 201.312 46.4202 201.032C46.2283 200.752 46.1323 200.384 46.1323 199.928C46.1323 199.744 46.1643 199.556 46.2283 199.364C46.3003 199.164 46.4003 198.968 46.5283 198.776C46.6643 198.584 46.8323 198.404 47.0323 198.236C47.2323 198.06 47.4683 197.904 47.7402 197.768C47.1163 197.432 46.6243 196.984 46.2643 196.424C45.9123 195.864 45.7363 195.208 45.7363 194.456C45.7363 193.848 45.8563 193.3 46.0963 192.812C46.3443 192.316 46.6843 191.896 47.1163 191.552C47.5563 191.2 48.0723 190.932 48.6643 190.748C49.2643 190.564 49.9163 190.472 50.6203 190.472C51.1483 190.472 51.6443 190.528 52.1083 190.64C52.5723 190.744 52.9963 190.9 53.3803 191.108H56.9203ZM61.8719 190.688V203H58.8959V190.688H61.8719ZM62.2799 187.1C62.2799 187.356 62.2279 187.596 62.1239 187.82C62.0199 188.044 61.8799 188.24 61.7039 188.408C61.5359 188.576 61.3359 188.712 61.1039 188.816C60.8719 188.912 60.6239 188.96 60.3599 188.96C60.1039 188.96 59.8599 188.912 59.6279 188.816C59.4039 188.712 59.2079 188.576 59.0399 188.408C58.8719 188.24 58.7359 188.044 58.6319 187.82C58.5359 187.596 58.4879 187.356 58.4879 187.1C58.4879 186.836 58.5359 186.588 58.6319 186.356C58.7359 186.124 58.8719 185.924 59.0399 185.756C59.2079 185.588 59.4039 185.456 59.6279 185.36C59.8599 185.256 60.1039 185.204 60.3599 185.204C60.6239 185.204 60.8719 185.256 61.1039 185.36C61.3359 185.456 61.5359 185.588 61.7039 185.756C61.8799 185.924 62.0199 186.124 62.1239 186.356C62.2279 186.588 62.2799 186.836 62.2799 187.1ZM72.4057 193.088C72.3257 193.216 72.2417 193.308 72.1537 193.364C72.0657 193.412 71.9537 193.436 71.8177 193.436C71.6737 193.436 71.5177 193.396 71.3497 193.316C71.1897 193.236 71.0017 193.148 70.7857 193.052C70.5697 192.948 70.3217 192.856 70.0417 192.776C69.7697 192.696 69.4457 192.656 69.0697 192.656C68.4857 192.656 68.0257 192.78 67.6897 193.028C67.3617 193.276 67.1977 193.6 67.1977 194C67.1977 194.264 67.2817 194.488 67.4497 194.672C67.6257 194.848 67.8537 195.004 68.1337 195.14C68.4217 195.276 68.7457 195.4 69.1057 195.512C69.4657 195.616 69.8297 195.732 70.1977 195.86C70.5737 195.988 70.9417 196.136 71.3017 196.304C71.6617 196.464 71.9817 196.672 72.2617 196.928C72.5497 197.176 72.7777 197.476 72.9457 197.828C73.1217 198.18 73.2097 198.604 73.2097 199.1C73.2097 199.692 73.1017 200.24 72.8857 200.744C72.6777 201.24 72.3657 201.672 71.9497 202.04C71.5337 202.4 71.0177 202.684 70.4017 202.892C69.7937 203.092 69.0897 203.192 68.2897 203.192C67.8657 203.192 67.4497 203.152 67.0417 203.072C66.6417 203 66.2537 202.896 65.8777 202.76C65.5097 202.624 65.1657 202.464 64.8457 202.28C64.5337 202.096 64.2577 201.896 64.0177 201.68L64.7017 200.552C64.7897 200.416 64.8937 200.312 65.0137 200.24C65.1337 200.168 65.2857 200.132 65.4697 200.132C65.6537 200.132 65.8257 200.184 65.9857 200.288C66.1537 200.392 66.3457 200.504 66.5617 200.624C66.7777 200.744 67.0297 200.856 67.3177 200.96C67.6137 201.064 67.9857 201.116 68.4337 201.116C68.7857 201.116 69.0857 201.076 69.3337 200.996C69.5897 200.908 69.7977 200.796 69.9577 200.66C70.1257 200.524 70.2457 200.368 70.3177 200.192C70.3977 200.008 70.4377 199.82 70.4377 199.628C70.4377 199.34 70.3497 199.104 70.1737 198.92C70.0057 198.736 69.7777 198.576 69.4897 198.44C69.2097 198.304 68.8857 198.184 68.5177 198.08C68.1577 197.968 67.7857 197.848 67.4017 197.72C67.0257 197.592 66.6537 197.444 66.2857 197.276C65.9257 197.1 65.6017 196.88 65.3137 196.616C65.0337 196.352 64.8057 196.028 64.6297 195.644C64.4617 195.26 64.3777 194.796 64.3777 194.252C64.3777 193.748 64.4777 193.268 64.6777 192.812C64.8777 192.356 65.1697 191.96 65.5537 191.624C65.9457 191.28 66.4297 191.008 67.0057 190.808C67.5897 190.6 68.2617 190.496 69.0217 190.496C69.8697 190.496 70.6417 190.636 71.3377 190.916C72.0337 191.196 72.6137 191.564 73.0777 192.02L72.4057 193.088ZM78.4406 185.168V203H75.4766V185.168H78.4406ZM87.8977 197.744C87.0417 197.784 86.3217 197.86 85.7377 197.972C85.1537 198.076 84.6857 198.212 84.3337 198.38C83.9817 198.548 83.7297 198.744 83.5777 198.968C83.4257 199.192 83.3497 199.436 83.3497 199.7C83.3497 200.22 83.5017 200.592 83.8057 200.816C84.1177 201.04 84.5217 201.152 85.0177 201.152C85.6257 201.152 86.1497 201.044 86.5897 200.828C87.0377 200.604 87.4737 200.268 87.8977 199.82V197.744ZM81.1057 192.404C82.5217 191.108 84.2257 190.46 86.2177 190.46C86.9377 190.46 87.5817 190.58 88.1497 190.82C88.7177 191.052 89.1977 191.38 89.5897 191.804C89.9817 192.22 90.2777 192.72 90.4777 193.304C90.6857 193.888 90.7897 194.528 90.7897 195.224V203H89.4457C89.1657 203 88.9497 202.96 88.7977 202.88C88.6457 202.792 88.5257 202.62 88.4377 202.364L88.1737 201.476C87.8617 201.756 87.5577 202.004 87.2617 202.22C86.9657 202.428 86.6577 202.604 86.3377 202.748C86.0177 202.892 85.6737 203 85.3057 203.072C84.9457 203.152 84.5457 203.192 84.1057 203.192C83.5857 203.192 83.1057 203.124 82.6657 202.988C82.2257 202.844 81.8457 202.632 81.5257 202.352C81.2057 202.072 80.9577 201.724 80.7817 201.308C80.6057 200.892 80.5177 200.408 80.5177 199.856C80.5177 199.544 80.5697 199.236 80.6737 198.932C80.7777 198.62 80.9457 198.324 81.1777 198.044C81.4177 197.764 81.7257 197.5 82.1017 197.252C82.4777 197.004 82.9377 196.788 83.4817 196.604C84.0337 196.42 84.6737 196.272 85.4017 196.16C86.1297 196.04 86.9617 195.968 87.8977 195.944V195.224C87.8977 194.4 87.7217 193.792 87.3697 193.4C87.0177 193 86.5097 192.8 85.8457 192.8C85.3657 192.8 84.9657 192.856 84.6457 192.968C84.3337 193.08 84.0577 193.208 83.8177 193.352C83.5777 193.488 83.3577 193.612 83.1577 193.724C82.9657 193.836 82.7497 193.892 82.5097 193.892C82.3017 193.892 82.1257 193.84 81.9817 193.736C81.8377 193.624 81.7217 193.496 81.6337 193.352L81.1057 192.404ZM105.837 203H102.873V192.908H97.1611V199.58C97.1611 199.964 97.2531 200.264 97.4371 200.48C97.6291 200.696 97.8891 200.804 98.2171 200.804C98.4011 200.804 98.5531 200.784 98.6731 200.744C98.8011 200.696 98.9091 200.648 98.9971 200.6C99.0931 200.552 99.1771 200.508 99.2491 200.468C99.3211 200.42 99.3931 200.396 99.4651 200.396C99.5531 200.396 99.6251 200.42 99.6811 200.468C99.7371 200.508 99.7971 200.572 99.8611 200.66L100.749 202.1C100.317 202.46 99.8211 202.732 99.2611 202.916C98.7011 203.1 98.1211 203.192 97.5211 203.192C96.4491 203.192 95.6251 202.892 95.0491 202.292C94.4811 201.684 94.1971 200.848 94.1971 199.784V192.908H92.9371C92.7771 192.908 92.6411 192.856 92.5291 192.752C92.4171 192.648 92.3611 192.492 92.3611 192.284V191.108L94.3411 190.772L94.9651 187.424C95.0051 187.264 95.0811 187.14 95.1931 187.052C95.3051 186.964 95.4491 186.92 95.6251 186.92H97.1611V190.796H105.837V203ZM106.353 187.052C106.353 187.308 106.301 187.552 106.197 187.784C106.093 188.008 105.953 188.204 105.777 188.372C105.609 188.54 105.405 188.676 105.165 188.78C104.933 188.876 104.685 188.924 104.421 188.924C104.165 188.924 103.925 188.876 103.701 188.78C103.477 188.676 103.281 188.54 103.113 188.372C102.945 188.204 102.809 188.008 102.705 187.784C102.609 187.552 102.561 187.308 102.561 187.052C102.561 186.788 102.609 186.544 102.705 186.32C102.809 186.088 102.945 185.888 103.113 185.72C103.281 185.544 103.477 185.408 103.701 185.312C103.925 185.208 104.165 185.156 104.421 185.156C104.685 185.156 104.933 185.208 105.165 185.312C105.405 185.408 105.609 185.544 105.777 185.72C105.953 185.888 106.093 186.088 106.197 186.32C106.301 186.544 106.353 186.788 106.353 187.052ZM114.31 190.496C115.222 190.496 116.05 190.644 116.794 190.94C117.546 191.236 118.186 191.656 118.714 192.2C119.25 192.744 119.662 193.408 119.95 194.192C120.238 194.976 120.382 195.852 120.382 196.82C120.382 197.796 120.238 198.676 119.95 199.46C119.662 200.244 119.25 200.912 118.714 201.464C118.186 202.016 117.546 202.44 116.794 202.736C116.05 203.032 115.222 203.18 114.31 203.18C113.39 203.18 112.554 203.032 111.802 202.736C111.05 202.44 110.406 202.016 109.87 201.464C109.342 200.912 108.93 200.244 108.634 199.46C108.346 198.676 108.202 197.796 108.202 196.82C108.202 195.852 108.346 194.976 108.634 194.192C108.93 193.408 109.342 192.744 109.87 192.2C110.406 191.656 111.05 191.236 111.802 190.94C112.554 190.644 113.39 190.496 114.31 190.496ZM114.31 200.9C115.334 200.9 116.09 200.556 116.578 199.868C117.074 199.18 117.322 198.172 117.322 196.844C117.322 195.516 117.074 194.504 116.578 193.808C116.09 193.112 115.334 192.764 114.31 192.764C113.27 192.764 112.498 193.116 111.994 193.82C111.498 194.516 111.25 195.524 111.25 196.844C111.25 198.164 111.498 199.172 111.994 199.868C112.498 200.556 113.27 200.9 114.31 200.9ZM125.416 192.2C125.664 191.952 125.924 191.724 126.196 191.516C126.476 191.3 126.768 191.12 127.072 190.976C127.384 190.824 127.716 190.708 128.068 190.628C128.42 190.54 128.804 190.496 129.22 190.496C129.892 190.496 130.488 190.612 131.008 190.844C131.528 191.068 131.96 191.388 132.304 191.804C132.656 192.212 132.92 192.704 133.096 193.28C133.28 193.848 133.372 194.476 133.372 195.164V203H130.408V195.164C130.408 194.412 130.236 193.832 129.892 193.424C129.548 193.008 129.024 192.8 128.32 192.8C127.808 192.8 127.328 192.916 126.88 193.148C126.432 193.38 126.008 193.696 125.608 194.096V203H122.644V190.688H124.456C124.84 190.688 125.092 190.868 125.212 191.228L125.416 192.2Z" fill="white"/>
<path d="M0.383633 58.8671C1.19563 57.4418 2.54318 57.0746 3.99872 57.2647C6.23602 57.554 7.45401 56.565 8.64608 54.725C14.9995 44.7652 21.4738 34.8831 27.9611 25.0053C28.6997 23.878 28.6263 23.3899 27.4212 22.6902C25.4689 21.5573 23.9278 19.8325 23.0208 17.7655C22.1139 15.6985 21.8883 13.3965 22.3765 11.1928C23.3526 6.76137 27.1275 3.21539 31.343 2.74892C36.2711 2.20903 40.5686 4.47656 42.5727 8.895C43.1989 10.2685 43.9764 10.6226 45.393 10.6226C52.9342 10.5564 60.4768 10.5564 68.0208 10.6226C69.4591 10.6226 70.2236 10.2599 70.7332 8.79999C71.6136 6.28692 73.2468 4.10609 75.4107 2.55427C77.5746 1.00245 80.1641 0.155004 82.8267 0.127222C88.5625 0.092669 93.5079 3.39247 95.4471 8.76543C95.9611 10.1951 96.6479 10.6486 98.1163 10.6356C105.764 10.5694 113.415 10.5694 121.068 10.6356C122.316 10.6356 122.977 10.2555 123.508 9.0764C125.551 4.5327 129.78 2.23493 134.811 2.76187C139.049 3.19378 142.763 6.67931 143.8 11.1755C144.836 15.6717 142.914 20.1376 138.742 22.6427C137.558 23.3511 137.606 23.878 138.271 24.893C145.009 35.1811 151.718 45.4893 158.398 55.8178C159.111 56.9235 159.936 57.2733 161.184 57.2647C165.684 57.2387 166.315 57.9687 165.978 62.4994C164.855 77.5904 152.382 90.6298 137.399 92.366C119.435 94.4435 103.71 82.4019 100.958 64.4171C100.779 63.1891 100.671 61.9518 100.634 60.7113C100.557 58.5172 101.615 57.1135 103.787 57.3381C106.677 57.6361 107.947 56.1244 109.316 53.9822C115.492 44.2944 121.798 34.6887 128.104 25.083C128.838 23.9644 128.968 23.3554 127.633 22.6082C125.526 21.4434 123.943 19.5187 123.206 17.2266C122.839 16.1468 122.239 15.8747 121.18 15.879C113.369 15.9135 105.557 15.9135 97.7449 15.879C96.6651 15.879 96.0821 16.177 95.7797 17.287C95.1996 19.4981 93.9777 21.4879 92.2683 23.0055C91.824 23.3815 91.4749 23.8573 91.2497 24.3941C91.0245 24.9308 90.9296 25.5132 90.9726 26.0937C91.0215 44.614 91.0417 63.1315 91.033 81.646C91.033 90.8803 91.0431 100.112 91.0632 109.34C91.0632 112.04 91.2101 114.735 91.2101 117.434C91.2101 118.635 91.6809 119.028 92.847 119.019C98.0732 118.98 103.304 118.998 108.53 119.019C111.013 119.019 111.903 119.883 111.985 122.423C112.02 123.883 112.067 125.342 111.985 126.794C111.903 128.245 112.343 128.802 113.885 128.767C118.088 128.668 122.29 128.724 126.493 128.737C129.084 128.737 129.84 129.502 129.853 132.128C129.853 134.829 129.853 137.528 129.853 140.226C129.853 142.684 128.989 143.543 126.545 143.543C113.299 143.543 100.046 143.543 86.783 143.543H40.1756C37.0572 143.543 36.2365 142.735 36.2236 139.656C36.2236 137.116 36.1977 134.581 36.2236 132.041C36.2538 129.64 37.1738 128.75 39.5925 128.742C43.6308 128.742 47.6735 128.742 51.7119 128.742C53.9751 128.742 53.9751 128.742 53.9794 126.396C53.9794 124.993 53.9535 123.589 53.9794 122.185C54.0356 119.969 54.9599 119.041 57.1583 119.032C62.4405 119.011 67.7185 118.98 73.0008 119.032C74.4563 119.054 74.9573 118.635 74.9573 117.115C74.9199 86.613 74.9199 56.1115 74.9573 25.6099C74.9924 25.1311 74.9168 24.6506 74.7363 24.2057C74.5558 23.7608 74.2752 23.3634 73.9164 23.0444C72.1746 21.4832 70.9409 19.4356 70.3747 17.1661C70.1329 16.2289 69.6535 15.8704 68.6687 15.8704C60.6956 15.9049 52.7211 15.9049 44.7452 15.8704C44.3736 15.823 43.9977 15.9133 43.6881 16.1242C43.3786 16.335 43.157 16.6519 43.065 17.0149C42.2237 19.559 40.4123 21.6683 38.0246 22.8846C36.8412 23.4763 37.4847 24.0551 37.8735 24.6554C42.1753 31.3155 46.4858 37.9727 50.8049 44.627C53.2106 48.3371 55.6595 52.0213 58.0135 55.7659C58.2564 56.2369 58.6303 56.6276 59.09 56.8912C59.5497 57.1547 60.0758 57.2799 60.6049 57.2517C65.4941 57.2517 66.1334 58.0378 65.5157 62.9184C63.4685 79.0718 51.9322 90.9623 35.7787 92.4395C22.3636 93.6704 11.9675 87.8785 4.75457 76.4588C2.35314 72.6623 1.1438 68.4166 0.375 64.0284L0.383633 58.8671ZM133.261 62.4303H107.722C106.716 62.4303 105.744 62.331 105.947 63.9204C107.536 76.3724 118.943 87.006 131.404 87.6064C145.747 88.2931 157.85 78.6831 160.437 64.5467C160.804 62.5642 160.692 62.4346 158.636 62.4346L133.261 62.4303ZM33.0577 62.4303H8.00685C5.50177 62.4303 5.34628 62.6636 5.8473 65.16C8.68927 79.7629 22.5147 89.3815 36.8153 87.3645C48.343 85.7405 58.4972 75.8671 60.1817 64.2875C60.4278 62.5988 59.8534 62.4001 58.454 62.4087C49.9627 62.4303 41.5231 62.4303 33.0447 62.4303H33.0577ZM133.006 57.2474C139.087 57.2474 145.169 57.2474 151.25 57.2474C151.712 57.2474 152.321 57.4504 152.593 56.9623C152.865 56.4743 152.347 56.0985 152.101 55.6925C146.054 46.3719 140.007 37.0685 134.004 27.7306C133.257 26.5688 132.907 26.7891 132.276 27.7781C126.284 37.0642 120.282 46.3417 114.27 55.6105C113.998 56.0424 113.371 56.4743 113.726 57.0098C114.08 57.5454 114.723 57.2474 115.246 57.2474C121.157 57.2474 127.073 57.2474 132.993 57.2474H133.006ZM32.8028 57.2474C38.8496 57.2474 44.8848 57.2474 50.9085 57.2474C51.3707 57.2474 51.984 57.4633 52.2604 57.0055C52.5368 56.5477 52.0142 56.1417 51.7637 55.74C45.8033 46.4885 39.8358 37.2413 33.861 27.9984C32.8806 26.4867 32.8547 26.4867 31.8958 27.9595C25.9009 37.188 19.9117 46.4208 13.9283 55.658C13.6735 56.051 13.1466 56.4527 13.3841 56.9278C13.6735 57.5022 14.3559 57.2431 14.8613 57.2431C20.8475 57.2459 26.8295 57.2474 32.8072 57.2474H32.8028ZM86.0099 72.7962H85.9797C85.9797 58.1717 85.9797 43.5472 85.9797 28.9227C85.9797 26.599 85.9797 26.6033 83.6128 26.7891C83.1817 26.8263 82.7482 26.8263 82.3171 26.7891C80.0452 26.5817 80.0452 26.5774 80.0452 28.8579C80.0452 57.6232 80.0452 86.3884 80.0452 115.154C80.0452 119.006 80.0452 119.006 83.8676 118.993C85.9969 118.993 86.0013 118.993 86.0013 116.834C86.007 102.16 86.0099 87.4811 86.0099 72.7962ZM82.9865 133.799H54.5452C50.7185 133.799 46.8961 133.799 43.0693 133.799C42.5554 133.799 41.8341 133.618 41.6484 134.257C41.2697 135.449 41.2697 136.728 41.6484 137.92C41.9853 138.866 43.0737 138.425 43.8079 138.425C69.9356 138.445 96.0619 138.445 122.187 138.425C122.619 138.425 123.051 138.425 123.482 138.425C123.811 138.425 124.208 138.382 124.316 138.045C124.696 136.857 124.717 135.583 124.377 134.382C124.087 133.367 122.981 133.812 122.239 133.808C109.155 133.796 96.0705 133.795 82.9865 133.804V133.799ZM83.034 128.703H95.3132C98.6562 128.703 101.995 128.672 105.334 128.703C106.487 128.703 107.061 128.361 106.958 127.131C106.905 126.7 106.905 126.265 106.958 125.835C107.161 124.358 106.465 124.034 105.1 124.034C90.4499 124.077 75.7995 124.06 61.1491 124.064C59.2833 124.064 59.3394 124.064 59.2617 126.483C59.2185 127.938 59.3956 128.75 61.2182 128.724C68.483 128.647 75.7563 128.707 83.0254 128.707L83.034 128.703ZM91.1712 13.5596C91.1712 8.71791 87.7462 5.17624 83.0643 5.16329C81.9715 5.16303 80.8898 5.38102 79.8824 5.80446C78.8751 6.22789 77.9624 6.84826 77.198 7.62914C76.4336 8.41002 75.8329 9.33569 75.4311 10.3519C75.0292 11.368 74.8344 12.4542 74.858 13.5467C74.8926 15.6938 75.7537 17.7449 77.262 19.2733C78.7703 20.8018 80.8098 21.6899 82.9563 21.753C85.1277 21.7462 87.2084 20.8818 88.7454 19.348C90.2824 17.8142 91.1512 15.7353 91.1626 13.564L91.1712 13.5596ZM133.213 18.9542C133.967 18.9582 134.714 18.8133 135.412 18.5277C136.109 18.2422 136.743 17.8216 137.278 17.2903C137.813 16.7589 138.237 16.1272 138.527 15.4314C138.816 14.7356 138.966 13.9894 138.966 13.2357C138.966 10.2857 136.202 7.51722 133.261 7.50426C130.32 7.4913 127.577 10.1821 127.547 13.1666C127.529 13.9207 127.663 14.6706 127.94 15.3723C128.216 16.074 128.63 16.7134 129.157 17.253C129.684 17.7925 130.314 18.2213 131.009 18.5142C131.704 18.8071 132.451 18.9581 133.205 18.9585L133.213 18.9542ZM38.4565 13.2918C38.4565 10.0525 35.9083 7.45241 32.8028 7.51288C31.3087 7.55565 29.8904 8.17996 28.8497 9.25289C27.8091 10.3258 27.2283 11.7626 27.2312 13.2573C27.2116 14.0113 27.3457 14.7615 27.6252 15.462C27.9048 16.1626 28.3241 16.7989 28.8574 17.3323C29.3908 17.8656 30.0271 18.2849 30.7277 18.5645C31.4282 18.844 32.1784 18.9781 32.9324 18.9585C33.6715 18.9642 34.4042 18.8204 35.0863 18.5358C35.7685 18.2512 36.3861 17.8316 36.902 17.3024C37.418 16.7731 37.8217 16.145 38.0888 15.4558C38.3559 14.7666 38.481 14.0306 38.4565 13.2918Z" fill="white"/>
<path d="M133.271 85.1227C123.863 85.1486 115.778 77.3267 115.476 67.9067C115.42 66.1143 116.465 64.784 117.99 64.7192C119.514 64.6545 120.624 65.8811 120.741 67.8463C121.099 73.8541 125.371 78.8384 130.973 79.7886C137.214 80.8511 142.85 77.7716 145.226 72.0142C145.769 70.6615 146.074 69.2252 146.128 67.7685C146.219 65.7904 147.364 64.5897 148.936 64.7452C150.508 64.9006 151.527 66.4123 151.294 68.343C150.003 78.1473 142.548 85.1011 133.271 85.1227Z" fill="white"/>
<path d="M33.0447 85.1282C28.4481 85.1327 24.0213 83.3921 20.6587 80.258C17.2962 77.124 15.2489 72.8304 14.9304 68.2449C14.7879 66.2322 15.7942 64.7896 17.4225 64.7161C19.0508 64.6427 20.0701 65.8218 20.1954 67.9771C20.5711 74.6501 25.7022 79.6041 32.6776 80.0317C38.5732 80.3902 44.2355 75.8508 45.4319 69.7738C45.5788 69.0396 45.5442 68.2708 45.6306 67.5192C45.8379 65.7916 47.0127 64.6427 48.4164 64.7204C49.9756 64.8068 50.9172 66.0162 50.8826 67.9209C50.7228 76.0927 43.6308 83.9016 35.5239 84.8604C34.6125 84.9641 33.7055 85.0548 33.0447 85.1282Z" fill="white"/>
</svg>
